<?xml version="1.0" encoding="UTF-8"?>
<svg id="Layer_1" xmlns="http://www.w3.org/2000/svg" version="1.1" viewBox="0 0 1280 1024">
  <!-- Generator: Adobe Illustrator 30.2.1, SVG Export Plug-In . SVG Version: 2.1.1 Build 1)  -->
  <defs>
    <style>
      .st0 {
        fill: #183e4b;
        stroke: #fff;
        stroke-miterlimit: 10;
      }

      .st1 {
        fill: none;
      }

      .st2 {
        fill: #999;
      }

      .st3 {
        display: none;
      }
    </style>
  </defs>
  <g>
    <g>
      <path class="st0" d="M592.78,249.92c29.24-3.88,68.17,6.46,95.67,15.82-12.76-5.69-56.28-23.97-80.3-20.44-14.65,3.42-14.93,3.49-22.31,6.04l-2.48.88c5.26-1.58,6.21-1.86,9.41-2.29"/>
      <g>
        <path class="st0" d="M503.62,317.58c50.34-28.72,230.39,36.01,289.48,93.73-58.18-73.63-244.1-144.66-274.78-116.2l-.78.84c-11.14,13.07-11.57,13.58-17.02,21.85l-4.23,6.83c2.66-3.5,3.87-5.09,7.33-7.06"/>
        <path class="st0" d="M802.55,427.09c1.87,5.89,2.73,10.58,1.57,17.14l1.84-10.09c-.12-3.43-.18-5.16-4.93-11.12.46,1.22,1.13,2.83,1.52,4.07"/>
      </g>
      <path class="st0" d="M475.83,420.9c8.16-17.18,49.02-25.77,139.21,1.63-64.85-31.38-137.13-49.15-141.38-25.56-.19,5.41-.46,12.63-.36,18.04.34,4.71.72,11,1.28,15.69-.15-4.16-.24-6.67,1.25-9.8"/>
      <path class="st0" d="M517.24,522.36c-4.7-5.29-8.39-10.62-10.97-15.83-.86.7-.68,1.69.62,3.4l6.43,8.02c2.22,2.47,5.15,5.78,7.44,8.17-1.06-1.13-2.49-2.61-3.52-3.77"/>
    </g>
    <g>
      <path class="st0" d="M775.42,352.9c-47.32,29.42-215.47-43.84-204.46-89.08,1.25-5.12,4.96-8.6,12.41-11.62l2.48-.88q14.71-4.53,22.31-6.04c-22.72,5.99,7.12,30.28,39.57,49.26.08.05.2.11.28.16,19.09,11.74,69.88,40.8,128.97,57.08-.47.33-1.07.81-1.56,1.11"/>
      <path class="st0" d="M804.11,444.23c-21.99,67.69-264.65-23.45-304.93-94.88-8.03-14.24-4.56-21.32-2.89-24.72l4.23-6.83c10.19-14.33,10.39-14.61,17.02-21.85l.78-.84c-16.75,24.02,59.1,68.67,74.48,77.37,97.55,56.47,206.25,83.48,213.16,61.66l-1.84,10.09"/>
      <path class="st0" d="M733.04,541.6c-84.32,21.6-250.53-58.05-258.45-110.9-.43-4.7-1.08-10.97-1.28-15.69.02-5.41.04-12.64.36-18.04,1.55,21.43,45.77,50.26,71.99,65.53,75.58,45.38,154.58,74.15,190.55,78.19-.95.28-2.2.68-3.16.92"/>
      <path class="st0" d="M595.16,565.48c-11.97-2.22-43.75-8.13-74.4-39.35-2.25-2.44-5.28-5.66-7.44-8.17l-6.43-8.02c6.28,7.15,17.64,13.44,40.28,25.98,22.6,13.18,39.2,23.2,49.35,29.8-.41-.07-.95-.16-1.35-.24"/>
      <path class="st0" d="M706.31,270.04c-4.23,6.9-24.21,3.49-27.55-6.8-1.19-3.67,1.31-6.28,6.22-6.5,1.66-.07,1.81,0,2.07.1,7.22,3.1,13.08,4.87,17.42,5.26-.73,1.14-1.08,2.5,2.01,7.58-.05.1-.11.24-.17.34"/>
    </g>
  </g>
  <ellipse class="st1" cx="625.9" cy="407.23" rx="186.65" ry="170.45"/>
  <g class="st3">
    <path class="st2" d="M405.81,611.92c.19,2.59.34,5.23.38,7.83,0,1.58,0,3.12-.1,4.7-.14,2.88-.48,5.71-1.34,8.45-.43,1.39-1.01,2.74-1.82,3.94-1.2,1.82-2.83,2.79-4.75,2.83-.96.05-1.97-.14-3.02-.58-2.26-.86-4.18-2.3-6.1-3.79-1.54-1.2-2.98-2.5-4.18-4.03-1.01-1.3-1.63-2.74-1.44-4.42,0-.19-.1-.48.29-.43.34.05.34.29.34.53-.14,1.78.58,3.26,1.73,4.56l1.2,1.25c2.4,2.45,5.14,4.46,8.3,5.95,1.01.48,2.02.67,2.93.58.91-.1,1.82-.48,2.59-1.1.38-.34.77-.72,1.1-1.15,1.39-1.87,2.06-4.03,2.54-6.29.82-3.65.91-7.39.96-10.27,0-5.62-.38-10.32-1.01-15.03-.48-3.41-1.1-6.82-1.63-10.22-.05-.14-.29-.43.1-.48.34-.05.48.19.53.48l.77,3.74c.82,4.37,1.49,8.74,1.82,13.15l-.19-.19Z"/>
    <path class="st2" d="M445.51,624.31c.05.1.05.19.05.24-.05.14-.19.24-.34.29-.29.14-.62.24-1.06.24-1.97.1-3.89-.19-5.76-.48l-.72-.14c-2.16-.34-4.37-.77-6.48-1.2-1.63-.34-3.31-.67-4.99-.96-2.21-.38-4.22-.58-6.19-.58-.53,0-.91.1-1.25.34-.86.62-1.63,1.06-2.35,1.34-.38.14-.53.34-.53.77.05,3.17.1,6.58.24,9.99v.91c0,.1,0,.19-.1.29-.05.05-.14.1-.24.1-.29,0-.43-.14-.43-.43v-1.01c-.05-.58-.1-1.2-.1-1.82l-.29-7.82c0-.14,0-.24-.05-.29s-.14-.05-.24,0c-.34.1-.67.14-1.1.1-.34,0-.53-.14-.62-.43-.14-.34.05-.58.24-.72.38-.34.86-.62,1.34-.77.38-.14.43-.34.43-.67-.1-4.22-.1-8.4-.05-12.43v-.38c.05-4.13.1-8.4.38-12.58.1-1.34.24-3.07.62-4.8.05-.24.1-.43.19-.62.14-.29.43-.14.53-.1.14.05.19.14.14.34-.29,1.54-.48,3.22-.58,5.33-.38,9.17-.38,18.19-.34,25.01,0,.19.05.29.1.34.05.05.14.05.34,0,.62-.14,1.3-.24,1.97-.29.34-.05.62-.19.96-.43,2.45-1.92,4.8-4.27,7.44-7.39,1.39-1.68,2.79-3.5,4.18-5.42,3.36-4.7,5.76-9.26,7.34-13.97.34-1.01.58-1.97.77-2.93v-.14c0-.14,0-.34.19-.34.1,0,.19.05.24.1.1.1.1.29.1.43-.05.53-.14,1.1-.34,1.78-1.1,4.18-3.02,8.4-6.1,13.3-2.45,3.89-5.47,7.63-9.26,11.47-.96.96-2.26,2.21-3.74,3.26-.05.05-.1.05-.14.05l.05.05h.86c.62,0,1.3.05,1.92.1,2.74.19,5.42.72,8.06,1.25h.05c3.5.72,6.96,1.39,10.51,1.82.67.1,1.39.14,2.26.14.38,0,.77-.05,1.1-.34.1-.1.24-.19.38-.14.1,0,.14.05.19.14l.19.14ZM414.6,623.64s.14-.14.1-.43c0-.24,0-.43-.05-.48-.1,0-.24.1-.43.19l-.1.05c-.14.05-.29.1-.38.19l-.14.14c-.19.14-.29.24-.19.38.1.19.34.14.62.05h.34c.14,0,.29,0,.38-.05l-.14-.05ZM417.76,622.05c-.58,0-1.15.1-1.73.29-.29.1-.24.34-.14.62v.05s0,.1.05.1.14-.05.19-.1c.05-.05.1-.05.14-.05.38-.19.77-.43,1.15-.67l.43-.29-.1.05Z"/>
    <path class="st2" d="M485.64,612.83v.05c-.24.29-.58.43-.91.58l-.29.14c-1.39.67-1.78.82-2.16.96s-.77.29-2.16.91l-1.73.86-1.87.86h-.05c-.1.05-.14.1-.14.14s0,.1.05.19c1.2,1.82.72,3.74.19,5.23-.77,2.06-2.06,3.94-4.03,5.71-1.58,1.44-3.12,2.59-4.7,3.5-2.54,1.49-4.8,2.45-7.06,3.02-1.78.48-3.31.72-4.75.72h-.62c-.62-.05-1.2-.24-1.73-.53-.91-.53-1.2-1.39-.77-2.35.53-1.2,1.44-2.11,2.4-3.02,2.54-2.4,5.38-4.37,8.88-6.58,3.79-2.35,7.73-4.37,10.71-5.9.19-.1.19-.14.19-.14,0-.05-.1-.1-.19-.14-1.39-.86-2.93-1.2-4.37-1.44-4.13-.62-8.26-.48-12.48-.29h-.77c-.38,0-.77,0-1.1.05-.96.14-1.97.19-2.93.24-.38,0-.77,0-1.15.05-2.45.14-4.8.24-7.2-.1-1.54-.19-2.64-.53-3.6-1.1-2.11-1.25-3.07-3.26-2.64-5.71.38-2.02,1.34-3.94,2.98-6.05,3.12-4.03,7.06-7.34,12.05-10.13,3.98-2.21,7.83-3.65,11.71-4.37,3.65-.67,6.82-.48,9.75.58,2.21.82,3.79,2.02,4.85,3.65.96,1.49,1.15,3.07.53,4.75-.72,1.92-2.06,3.31-3.31,4.46-2.4,2.21-5.23,3.94-8.45,5.14-.91.34-1.78.53-2.59.62-.19,0-.34,0-.48-.1-.14-.05-.19-.14-.14-.29.05-.14.14-.14.19-.14h.05c1.63-.1,3.07-.82,4.46-1.49,2.59-1.3,4.8-2.78,6.67-4.61,1.15-1.1,2.02-2.21,2.64-3.36,1.25-2.4.72-4.7-1.44-6.34-1.63-1.25-3.6-2.02-6-2.35-2.93-.38-5.9-.1-9.41.96-4.7,1.39-9.22,3.7-13.44,6.82-3.41,2.5-6.05,5.28-8.11,8.45-1.1,1.73-1.68,3.26-1.78,4.85-.14,2.02.67,3.36,2.5,4.18,1.78.77,3.65.91,5.23.96,2.4.05,4.85-.1,7.2-.24l1.87-.14c4.13-.24,8.93-.43,13.58.19,1.68.24,2.98.58,4.13,1.06l.14.05c.43.19.86.38,1.2.72.38.43.72.38,1.25.1,2.5-1.25,3.55-1.68,4.9-2.26.91-.38,1.92-.82,3.6-1.58h.14c.14-.05.34-.19.53,0ZM476.14,619.89c.14-.86,0-1.63-.38-2.3-.1-.14-.14-.24-.24-.24-.05,0-.1,0-.14.05l-2.88,1.44c-.34.14-.67.29-1.01.48-.91.58-1.92,1.1-2.88,1.63-.67.38-1.39.77-2.06,1.2-4.42,2.64-7.87,5.14-10.85,7.82-.82.72-1.73,1.63-2.21,2.83-.14.34-.29.82-.1,1.2.14.24.43.38.82.48l.14.05c.48.1.96.19,1.44.19h.86c2.3-.24,4.56-.86,6.96-1.92,3.84-1.68,6.91-3.79,9.46-6.48,1.87-1.97,2.93-4.03,3.26-6.24l-.19-.19ZM485.64,612.55v.29l.1.1-.1-.38Z"/>
    <path class="st2" d="M505.08,636.02c0,.19.14.43-.19.48-.34.05-.48-.14-.53-.43-.05-.38-.1-.77-.1-1.15l-.1-1.78c-.29-6.48-.38-13.01-.43-20.5l.14-15.89c0-1.2.05-2.35.05-3.55,0-.72-.05-1.44-.05-2.16,0-.14-.1-.38.14-.38s.38.14.43.34c.05.43.1.91.1,1.39.05,2.35.05,4.7.05,7.06-.05,5.86-.05,11.71-.05,17.57,0,4.94.1,9.89.19,14.83,0,.62.05,1.25.05,1.87,0,.72.05,1.44.1,2.16l.19.14Z"/>
    <path class="st2" d="M549.53,587.2c0,.1-.05.14-.1.19-.1.05-.24,0-.34-.05-.1-.05-.14-.05-.19-.05-.05.05-.1.14-.1.24v.14c-.34.82-.48,1.73-.58,2.59v.05c-.34,2.45-.58,4.9-.77,7.3l-.1,1.2c-.38,4.56-.96,9.36-1.68,14.21-.86,5.81-1.73,11.04-2.64,15.94-.34,1.68-.72,3.46-1.34,5.14-.24.67-.62,1.54-1.3,2.26-.96,1.01-2.06,1.3-3.31.86-.38-.14-.67-.29-1.01-.48-.62-.38-1.2-.86-1.73-1.34-.34-.29-.67-.58-.96-.91-1.82-1.92-3.31-4.08-4.61-5.9-3.79-5.38-7.34-11.43-10.85-18.53l-3.41-6.91-1.73-3.6v-.14c-.05-.1-.1-.19-.19-.29,0,.34.05.72.05,1.06l.14,3.22.14,3.6.43,7.49.43,6.14.48,6.91.58,9.65.14,3.6.14,2.88c0,.38.05.77.05,1.15v.43c.05.24-.1.38-.34.43-.1,0-.14,0-.19-.05s-.1-.14-.1-.19v-.19c0-.34-.05-.62-.05-.96l-.14-1.73-.14-3.17-.43-6.77-.43-6.43-.29-4.61-.48-7.34-.58-9.79-.14-3.74v-.72c-.05-.58-.1-1.15-.05-1.73.05-.77-.29-1.34-.72-2.02l-.14-.14c0,.1.05.19.1.29.05.14.1.29.05.48,0,.05-.05.14-.05.19l-.1-.14c-.53-.67-.86-1.3-1.01-1.92-.05-.19,0-.29.05-.34.14-.1.43.05.48.1.29.14.48.38.67.62,0,.05.05.05.05.1l.29.34.05.05v-3.07c0-.24,0-.43-.14-.62-.24-.24-.14-.53-.05-.82v-.14s.05-.19.34-.14l.24.14.14.24.14,1.25v.86c.1,1.06.19,2.11.24,3.17,0,.62.29,1.15.58,1.63l.14.43c1.01,1.82,1.92,3.74,2.83,5.62l.58,1.1.58,1.15,1.15,2.35.67,1.3c3.94,7.73,7.97,14.4,12.34,20.26,1.39,1.87,2.78,3.7,4.66,5.09.48.38,1.1.82,1.87,1.01.62.14,1.15,0,1.63-.43.48-.43.86-1.01,1.2-1.82.82-1.97,1.2-4.08,1.58-6.14,0-.1.05-.19.05-.29,1.06-5.81,2.02-11.91,2.88-18.15.53-3.98.96-8.06,1.34-12l.14-2.16.14-1.15c.19-2.02.38-4.08.86-6.1.1-.43.24-.96.53-1.39.24-.38.58-.48,1.01-.29v.1c.24.1.34.24.29.38Z"/>
    <path class="st2" d="M583.03,590.27c.24.14.38.34.38.53,0,.14-.05.34-.34.53-.43.24-.82.43-1.2.53-.29.05-.48-.05-.53-.24-.05-.1-.05-.14,0-.19.05-.1.14-.14.24-.19h.14l.29-.14c.19-.05.43-.1.62-.24h-.19c-2.59,0-15.36,2.26-19.44,3.5.24.62.19,1.3.14,1.92v.19l-.14,1.63-.14,3.12c-.05,1.25-.05,2.54-.05,3.79v.77c0,3.46-.05,7.2-.14,10.95-.05,1.39-.05,2.78-.05,4.13,0,1.44,0,2.93-.05,4.37-.05,2.4.05,4.85.14,7.2.05.91.1,1.82.1,2.78v2.06c0,.91,0,1.82.05,2.74v.24c0,.34,0,.62.43.77.05,0,.1.05.1.1.05.1,0,.29-.1.58-.1.24-.29.38-.53.38s-.38-.14-.43-.43c-.1-.34-.1-.67-.1-1.01v-.43c0-.24-.05-.48-.1-.72-.05-.43-.1-.86-.1-1.3v-2.16c-.05-1.63-.1-3.31-.19-4.99,0-.38.05-.72.1-1.06v-.43h-.1s-.05,0-.05-.05v-.1c-.05-1.3-.05-2.59-.05-3.89,0-1.92,0-3.84.05-5.76v-4.46c0-3.02,0-6.14.05-9.22.1-4.42.24-8.02.48-11.28,0-.14,0-.29-.05-.34-.05-.05-.14-.05-.34,0-5.71,1.34-10.71,2.83-15.22,4.51l-.91.34-2.83,1.2-1.87.82-2.02.86s-.1.05-.1.05c-.05,0-.05.05-.05.1,0,.1-.05.14-.1.19-.05.05-.1,0-.14,0s-.1,0-.14-.05h-.14c-.19,0-.34-.1-.38-.24-.05-.24.14-.34.24-.38l.72-.34,3.26-1.49c7.49-3.36,15.79-5.86,26.93-8.07,3.74-.72,6.87-1.25,9.7-1.68l.86-.14h.1c.82-.1,1.63-.19,2.45-.14.24,0,.43.05.62.19l.1.1Z"/>
    <path class="st2" d="M567.76,632.8v-.72l.19-.82c.1-.53.19-1.06.34-1.58.86-2.74,2.26-5.18,3.89-7.54,3.7-5.23,8.16-9.7,13.49-13.3l.62-.43c.43-.29.86-.58,1.3-.91-.19.05-.38.1-.58.1-.19.05-.38.05-.58.05-.67.05-1.3.14-1.97.14-.96.05-1.97,0-2.93-.24-1.34-.29-2.45-.91-2.83-2.4-.19-.82-.05-1.63.24-2.45.58-1.54,1.54-2.83,2.64-4.03,2.78-2.98,6.05-5.28,9.65-7.1,1.1-.58,2.3-1.1,3.46-1.54l.86-.34c.38-.14.77-.34,1.2-.29.34.05.43-.29.67-.38.48-.19,1.01-.48,1.49-.43.72.05,1.25-.43,1.92-.48s1.34-.19,2.02-.24c.34,0,.72-.05,1.06-.05,1.78-.05,3.55.1,5.23.77,1.2.48,2.21,1.25,2.64,2.54.43,1.39-.14,2.59-.91,3.65-.77,1.06-1.68,2.06-2.74,2.88-.77.58-1.44,1.3-2.3,1.68.1-.48.24-.67.96-1.25,1.39-1.1,2.59-2.4,3.65-3.89.34-.48.58-1.01.72-1.54.43-1.39,0-2.5-1.3-3.17-1.44-.77-3.02-1.01-4.66-1.1h-.96c-1.3.05-2.59.24-3.89.43-.67.1-1.34.29-1.97.48l-.96.29c-3.46,1.06-6.67,2.69-9.7,4.7-2.64,1.78-5.09,3.79-7.01,6.38-.77,1.06-1.39,2.16-1.58,3.46-.14,1.2.24,1.87,1.39,2.3,1.2.43,2.45.48,3.7.43,1.92-.1,3.79-.34,5.67-.67.34-.05.62-.14.91-.29.72-.29,1.44-.43,2.16-.58.38-.1.58.1.67.43.1.38-.24.43-.48.48-1.63.29-3.12,1.01-4.56,1.82l-1.73.96c-1.01.58-1.87,1.25-2.78,1.92-.67.53-1.34,1.1-2.02,1.68l-.67.58c-3.07,2.74-5.9,5.76-8.3,9.12-.24.29-.43.62-.62.91-1.68,2.45-3.17,4.99-3.84,7.92-.14.53-.19,1.06-.19,1.58,0,2.16.96,3.26,3.07,3.6,1.82.29,3.6-.1,5.33-.62,3.79-1.15,7.25-3.02,10.61-5.14,4.8-3.02,9.22-6.58,13.49-10.27l.86-.77c2.11-1.87,4.22-3.79,6.29-5.76l.77-.77c.19-.19.43-.53.72-.05.1.19.1.34-.1.48l-3.02,2.88c-1.25,1.2-2.5,2.4-3.79,3.55l-1.49,1.34c-1.25,1.1-2.45,2.21-3.74,3.22-.24.19-.53.34-.82.48-.24.14-.43.53-.72.77-4.99,4.08-10.22,7.68-16.23,10.08l-1.06.43c-1.25.48-2.5.82-3.79,1.01l-.96.1c-1.25.1-2.45,0-3.55-.53-1.44-.72-2.3-1.87-2.5-3.46,0-.14,0-.34-.1-.48l.05-.05Z"/>
    <path class="st2" d="M648.65,599.15c-.62,2.88-2.02,5.57-4.22,8.21-5.28,6.29-11.86,10.42-19.58,12.24h-.14s-.1,0-.14.05c6.53,1.82,13.25,2.78,19.06,3.55l.19.05-.19.1c-.43.24-.86.19-1.3.14h-.29c-6.48-.67-12.29-1.73-17.71-3.17-.86-.24-1.63-.34-2.4-.29h-.05c-.24,0-.58.05-.77-.1-.1-.05-.14-.14-.14-.29,0-.1.05-.19.1-.24.14-.14.43-.1.67-.05h.14c1.34.14,2.64-.24,3.89-.62l.38-.1c7.58-2.35,13.78-6.72,18.39-13.01,1.92-2.64,2.98-5.23,3.22-7.92s-.62-5.23-2.3-7.01c-1.63-1.73-3.89-2.59-6.58-2.5-2.78.1-5.42,1.2-8.3,3.46-2.59,2.02-4.7,4.61-6.43,7.97-2.64,5.14-4.22,10.8-4.85,17.33-.43,4.8-.19,9.55.14,14.83l.05.38c.05,1.06.1,2.11-.05,3.17v.1c-.05.48-.1,1.01-.67,1.25-.19.1-.38.14-.58.14-.38,0-.77-.14-1.15-.48-1.34-1.15-2.11-2.64-2.69-3.94-1.49-3.36-2.21-6.96-2.78-10.32-.48-2.74-.77-5.66-.91-8.98-.24-5.23.19-10.51,1.25-15.75l.14-.72c.34-1.68.67-3.41,1.34-5.04v-.14l.14-.14c.05-.1.14-.38.48-.29.24.1.14.34.1.48-.62,2.06-1.01,4.18-1.34,6.24l-.43,2.16c-.34,1.82-.48,3.7-.62,5.52l-.05.43c-.19,2.54-.19,5.33.05,8.74.29,4.22.77,7.73,1.49,10.99.1.53.14,1.1.19,1.63l.05.29c.05.34.19.67.34,1.01.1.19.19.38.24.58.58,1.82,1.25,3.89,2.45,5.67.38.53.82,1.1,1.39,1.54.1.1.19.14.29.14s.14-.1.19-.24c.14-.38.19-.82.19-1.25.05-1.15-.05-2.3-.14-3.41-.05-.38-.1-.77-.1-1.15-.24-4.18-.48-8.5-.05-12.82.82-8.35,2.98-15.17,6.67-20.83,2.3-3.55,5.28-6.19,8.83-7.82,3.07-1.39,6.53-2.02,9.41-.91,4.27,1.73,6.58,6.29,5.52,11.14Z"/>
    <path class="st2" d="M685.7,587.2c0,.1-.05.14-.1.19-.1.05-.24,0-.34-.05-.1-.05-.14-.05-.19-.05-.05.05-.1.14-.1.24v.14c-.34.82-.48,1.73-.58,2.59v.05c-.34,2.45-.58,4.9-.77,7.3l-.1,1.2c-.38,4.56-.96,9.36-1.68,14.21-.86,5.81-1.73,11.04-2.64,15.94-.34,1.68-.72,3.46-1.34,5.14-.24.67-.62,1.54-1.3,2.26-.96,1.01-2.06,1.3-3.31.86-.38-.14-.67-.29-1.01-.48-.62-.38-1.2-.86-1.73-1.34-.34-.29-.67-.58-.96-.91-1.82-1.92-3.31-4.08-4.61-5.9-3.79-5.38-7.34-11.43-10.85-18.53l-3.41-6.91-1.73-3.6v-.14c-.05-.1-.1-.19-.19-.29,0,.34.05.72.05,1.06l.14,3.22.14,3.6.43,7.49.43,6.14.48,6.91.58,9.65.14,3.6.14,2.88c0,.38.05.77.05,1.15v.43c.05.24-.1.38-.34.43-.1,0-.14,0-.19-.05s-.1-.14-.1-.19v-.19c0-.34-.05-.62-.05-.96l-.14-1.73-.14-3.17-.43-6.77-.43-6.43-.29-4.61-.48-7.34-.58-9.79-.14-3.74v-.72c-.05-.58-.1-1.15-.05-1.73.05-.77-.29-1.34-.72-2.02l-.14-.14c0,.1.05.19.1.29.05.14.1.29.05.48,0,.05-.05.14-.05.19l-.1-.14c-.53-.67-.86-1.3-1.01-1.92-.05-.19,0-.29.05-.34.14-.1.43.05.48.1.29.14.48.38.67.62,0,.05.05.05.05.1l.29.34.05.05v-3.07c0-.24,0-.43-.14-.62-.24-.24-.14-.53-.05-.82v-.14s.05-.19.34-.14l.24.14.14.24.14,1.25v.86c.1,1.06.19,2.11.24,3.17,0,.62.29,1.15.58,1.63l.14.43c1.01,1.82,1.92,3.74,2.83,5.62l.58,1.1.58,1.15,1.15,2.35.67,1.3c3.94,7.73,7.97,14.4,12.34,20.26,1.39,1.87,2.78,3.7,4.66,5.09.48.38,1.1.82,1.87,1.01.62.14,1.15,0,1.63-.43.48-.43.86-1.01,1.2-1.82.82-1.97,1.2-4.08,1.58-6.14,0-.1.05-.19.05-.29,1.06-5.81,2.02-11.91,2.88-18.15.53-3.98.96-8.06,1.34-12l.14-2.16.14-1.15c.19-2.02.38-4.08.86-6.1.1-.43.24-.96.53-1.39.24-.38.58-.48,1.01-.29v.1c.24.1.34.24.29.38Z"/>
    <path class="st2" d="M714.36,611.16c-1.2.24-2.4.58-3.6.82-.29.05-.38.19-.34.48,1.01,5.62,2.06,11.19,4.03,16.56.19.48.43.96.72,1.39.19.29.38.58.77.58.1,0,.24.05.29.19.05.19-.1.24-.19.29-.53.19-.96.05-1.34-.34-.43-.43-.72-.96-.96-1.54-1.3-3.02-2.06-6.24-2.83-9.46-.58-2.4-1.1-4.8-1.49-7.2-.05-.38-.14-.53-.58-.38-1.82.53-3.7.91-5.52,1.54-1.39.48-2.83.82-4.22,1.34-2.35.91-4.71,1.87-6.96,3.02-.24.1-.34.29-.38.53-.77,5.09-1.78,10.13-2.78,15.17-.1.43-.48.82-.14,1.34.05.1-.34.29-.58.29-.34,0-.29-.24-.24-.43.29-1.15.43-2.35.62-3.5l2.16-12.38v-.34l-1.49.77c-1.44.77-2.93,1.49-4.37,2.3-2.11,1.2-4.13,2.54-6.29,3.6-1.34.67-2.69,1.3-4.18,1.49-.72.1-1.44.1-2.16-.19-.43-.19-.77-.48-.91-.96-.1-.29-.05-.53.1-.72.14-.14.34-.34.53-.19.19.14-.1.24-.14.38-.24.48.1,1.06.72,1.25.72.24,1.44.14,2.16,0,1.73-.38,3.26-1.25,4.8-2.11,1.73-.96,3.41-1.97,5.09-2.98,1.97-1.15,3.94-2.3,6-3.26.38-.19.43-.48.48-.82.29-2.02.67-4.03,1.1-6.05,1.2-5.42,2.93-10.66,5.67-15.5,1.54-2.69,3.26-5.23,5.57-7.34.48-.48,1.01-.91,1.63-1.25,1.44-.77,2.83-.24,3.36,1.3.43,1.3.48,2.64.53,3.98.14,3.26.19,6.53.34,9.79.14,2.93.48,5.86.86,8.79.05.38.19.48.58.38,2.88-.67,5.76-1.25,8.74-1.44.67-.05,1.34,0,2.02.1-2.45-.24-4.8.34-7.15.72ZM708.55,611.83c.19-.05.48,0,.43-.38v-.24c-.24-1.73-.43-3.46-.58-5.18-.38-4.32-.48-8.64-.58-12.96-.05-1.49-.05-2.98-.38-4.42-.29-1.3-.67-1.44-1.82-.82-1.2.67-2.16,1.63-3.07,2.64-2.16,2.45-3.84,5.18-5.23,8.11-1.1,2.35-1.97,4.8-2.78,7.3-1.2,3.6-1.78,7.34-2.64,11.04-.05.14-.05.34.05.43.1.1.24,0,.34-.05,3.79-1.82,7.82-3.07,11.9-4.22,1.49-.43,2.98-.82,4.46-1.2l-.1-.05ZM721.51,610.05c.24.05.53.05.67.29-.1.14-.19.14-.29.14-.14,0-.29,0-.38-.05v-.38Z"/>
    <path class="st2" d="M751.84,590.27c.24.14.38.34.38.53,0,.14-.05.34-.34.53-.43.24-.82.43-1.2.53-.29.05-.48-.05-.53-.24-.05-.1-.05-.14,0-.19.05-.1.14-.14.24-.19h.14l.29-.14c.19-.05.43-.1.62-.24h-.19c-2.59,0-15.36,2.26-19.44,3.5.24.62.19,1.3.14,1.92v.19l-.14,1.63-.14,3.12c-.05,1.25-.05,2.54-.05,3.79v.77c0,3.46-.05,7.2-.14,10.95-.05,1.39-.05,2.78-.05,4.13,0,1.44,0,2.93-.05,4.37-.05,2.4.05,4.85.14,7.2.05.91.1,1.82.1,2.78v2.06c0,.91,0,1.82.05,2.74v.24c0,.34,0,.62.43.77.05,0,.1.05.1.1.05.1,0,.29-.1.58-.1.24-.29.38-.53.38s-.38-.14-.43-.43c-.1-.34-.1-.67-.1-1.01v-.43c0-.24-.05-.48-.1-.72-.05-.43-.1-.86-.1-1.3v-2.16c-.05-1.63-.1-3.31-.19-4.99,0-.38.05-.72.1-1.06v-.43h-.1s-.05,0-.05-.05v-.1c-.05-1.3-.05-2.59-.05-3.89,0-1.92,0-3.84.05-5.76v-4.46c0-3.02,0-6.14.05-9.22.1-4.42.24-8.02.48-11.28,0-.14,0-.29-.05-.34-.05-.05-.14-.05-.34,0-5.71,1.34-10.71,2.83-15.22,4.51l-.91.34-2.83,1.2-1.87.82-2.02.86s-.1.05-.1.05c-.05,0-.05.05-.05.1,0,.1-.05.14-.1.19-.05.05-.1,0-.14,0s-.1,0-.14-.05h-.14c-.19,0-.34-.1-.38-.24-.05-.24.14-.34.24-.38l.72-.34,3.26-1.49c7.49-3.36,15.79-5.86,26.93-8.07,3.74-.72,6.87-1.25,9.7-1.68l.86-.14h.1c.82-.1,1.63-.19,2.45-.14.24,0,.43.05.62.19l.1.1Z"/>
    <path class="st2" d="M745.46,636.02c0,.19.14.43-.19.48-.34.05-.48-.14-.53-.43-.05-.38-.1-.77-.1-1.15l-.1-1.78c-.29-6.48-.38-13.01-.43-20.5l.14-15.89c0-1.2.05-2.35.05-3.55,0-.72-.05-1.44-.05-2.16,0-.14-.1-.38.14-.38s.38.14.43.34c.05.43.1.91.1,1.39.05,2.35.05,4.7.05,7.06-.05,5.86-.05,11.71-.05,17.57,0,4.94.1,9.89.19,14.83,0,.62.05,1.25.05,1.87,0,.72.05,1.44.1,2.16l.19.14Z"/>
    <path class="st2" d="M777,596.8c2.35,2.64,3.17,5.81,3.07,7.97-.14,4.61-.58,7.83-1.44,10.99-.91,3.36-2.11,6.58-4.18,9.41-1.44,1.97-3.07,3.75-5.14,5.04-1.92,1.2-3.89,1.87-5.95,1.82-1.34,0-2.78-.34-4.18-.96-2.35-1.01-3.79-2.98-4.8-5.23-1.44-3.36-2.06-6.87-2.02-10.46,0-.72.05-1.44.1-2.16.29-2.98.86-5.86,2.16-8.54,1.58-3.41,4.03-6,7.54-7.49.29-.14.48-.38.67-.62,1.78-2.26,3.98-3.7,7.01-3.46,2.93.19,5.28,1.49,7.2,3.65l-.05.05ZM777.81,615.43s-.05.1-.05.14c.77-2.98,1.39-6,1.44-9.07,0-1.01-.05-2.02-.14-3.07-.43-4.13-2.45-7.25-6.24-9.03-.96-.48-1.97-.72-2.93-.77-1.44-.05-2.88.38-4.27,1.34-.67.48-1.2,1.06-1.78,1.82,1.39-.29,2.64-.38,3.89-.19,1.25.19,2.5.48,3.46,1.49-.34.14-.43-.05-.58-.14l-.58-.34c-.96-.38-1.97-.58-2.93-.62-1.01-.05-1.97.1-2.98.34-.34.1-.62.19-.82.38-.24.19-.38.38-.53.67-1.15,2.26-1.58,4.61-1.58,7.01,0,.96.05,1.97.19,2.93.58,4.8,2.06,9.31,4.03,13.68.67,1.44,1.44,2.83,2.69,3.89.05.05.1.14.05.24-.24.1-.43,0-.67-.19-1.39-1.1-2.26-2.59-2.98-4.18-1.63-3.5-2.83-7.15-3.74-10.9-.48-1.97-.67-3.94-.58-5.95.05-1.01.14-2.02.34-3.02.1-.43.19-.86.34-1.3.24-.82.58-1.63,1.01-2.54l-.43.24c-2.98,1.73-5.09,4.22-6.34,7.39-1.2,3.02-1.82,6.14-1.87,9.31-.05,1.58.1,3.17.34,4.75.38,2.83,1.2,5.52,2.74,7.97,1.01,1.58,2.3,2.83,4.18,3.36.91.24,1.82.34,2.74.34,1.78-.05,3.5-.58,5.14-1.58,2.11-1.25,3.79-2.98,5.18-4.94,2.06-2.88,3.41-6.05,4.27-9.46Z"/>
    <path class="st2" d="M822.21,587.2c0,.1-.05.14-.1.19-.1.05-.24,0-.34-.05-.1-.05-.14-.05-.19-.05-.05.05-.1.14-.1.24v.14c-.34.82-.48,1.73-.58,2.59v.05c-.34,2.45-.58,4.9-.77,7.3l-.1,1.2c-.38,4.56-.96,9.36-1.68,14.21-.86,5.81-1.73,11.04-2.64,15.94-.34,1.68-.72,3.46-1.34,5.14-.24.67-.62,1.54-1.3,2.26-.96,1.01-2.06,1.3-3.31.86-.38-.14-.67-.29-1.01-.48-.62-.38-1.2-.86-1.73-1.34-.34-.29-.67-.58-.96-.91-1.82-1.92-3.31-4.08-4.61-5.9-3.79-5.38-7.34-11.43-10.85-18.53l-3.41-6.91-1.73-3.6v-.14c-.05-.1-.1-.19-.19-.29,0,.34.05.72.05,1.06l.14,3.22.14,3.6.43,7.49.43,6.14.48,6.91.58,9.65.14,3.6.14,2.88c0,.38.05.77.05,1.15v.43c.05.24-.1.38-.34.43-.1,0-.14,0-.19-.05s-.1-.14-.1-.19v-.19c0-.34-.05-.62-.05-.96l-.14-1.73-.14-3.17-.43-6.77-.43-6.43-.29-4.61-.48-7.34-.58-9.79-.14-3.74v-.72c-.05-.58-.1-1.15-.05-1.73.05-.77-.29-1.34-.72-2.02l-.14-.14c0,.1.05.19.1.29.05.14.1.29.05.48,0,.05-.05.14-.05.19l-.1-.14c-.53-.67-.86-1.3-1.01-1.92-.05-.19,0-.29.05-.34.14-.1.43.05.48.1.29.14.48.38.67.62,0,.05.05.05.05.1l.29.34.05.05v-3.07c0-.24,0-.43-.14-.62-.24-.24-.14-.53-.05-.82v-.14s.05-.19.34-.14l.24.14.14.24.14,1.25v.86c.1,1.06.19,2.11.24,3.17,0,.62.29,1.15.58,1.63l.14.43c1.01,1.82,1.92,3.74,2.83,5.62l.58,1.1.58,1.15,1.15,2.35.67,1.3c3.94,7.73,7.97,14.4,12.34,20.26,1.39,1.87,2.78,3.7,4.66,5.09.48.38,1.1.82,1.87,1.01.62.14,1.15,0,1.63-.43.48-.43.86-1.01,1.2-1.82.82-1.97,1.2-4.08,1.58-6.14,0-.1.05-.19.05-.29,1.06-5.81,2.02-11.91,2.88-18.15.53-3.98.96-8.06,1.34-12l.14-2.16.14-1.15c.19-2.02.38-4.08.86-6.1.1-.43.24-.96.53-1.39.24-.38.58-.48,1.01-.29v.1c.24.1.34.24.29.38Z"/>
    <path class="st2" d="M850.87,611.16c-1.2.24-2.4.58-3.6.82-.29.05-.38.19-.34.48,1.01,5.62,2.06,11.19,4.03,16.56.19.48.43.96.72,1.39.19.29.38.58.77.58.1,0,.24.05.29.19.05.19-.1.24-.19.29-.53.19-.96.05-1.34-.34-.43-.43-.72-.96-.96-1.54-1.3-3.02-2.06-6.24-2.83-9.46-.58-2.4-1.1-4.8-1.49-7.2-.05-.38-.14-.53-.58-.38-1.82.53-3.7.91-5.52,1.54-1.39.48-2.83.82-4.22,1.34-2.35.91-4.71,1.87-6.96,3.02-.24.1-.34.29-.38.53-.77,5.09-1.78,10.13-2.78,15.17-.1.43-.48.82-.14,1.34.05.1-.34.29-.58.29-.34,0-.29-.24-.24-.43.29-1.15.43-2.35.62-3.5l2.16-12.38v-.34l-1.49.77c-1.44.77-2.93,1.49-4.37,2.3-2.11,1.2-4.13,2.54-6.29,3.6-1.34.67-2.69,1.3-4.18,1.49-.72.1-1.44.1-2.16-.19-.43-.19-.77-.48-.91-.96-.1-.29-.05-.53.1-.72.14-.14.34-.34.53-.19.19.14-.1.24-.14.38-.24.48.1,1.06.72,1.25.72.24,1.44.14,2.16,0,1.73-.38,3.26-1.25,4.8-2.11,1.73-.96,3.41-1.97,5.09-2.98,1.97-1.15,3.94-2.3,6-3.26.38-.19.43-.48.48-.82.29-2.02.67-4.03,1.1-6.05,1.2-5.42,2.93-10.66,5.67-15.5,1.54-2.69,3.26-5.23,5.57-7.34.48-.48,1.01-.91,1.63-1.25,1.44-.77,2.83-.24,3.36,1.3.43,1.3.48,2.64.53,3.98.14,3.26.19,6.53.34,9.79.14,2.93.48,5.86.86,8.79.05.38.19.48.58.38,2.88-.67,5.76-1.25,8.74-1.44.67-.05,1.34,0,2.02.1-2.45-.24-4.8.34-7.15.72ZM845.06,611.83c.19-.05.48,0,.43-.38v-.24c-.24-1.73-.43-3.46-.58-5.18-.38-4.32-.48-8.64-.58-12.96-.05-1.49-.05-2.98-.38-4.42-.29-1.3-.67-1.44-1.82-.82-1.2.67-2.16,1.63-3.07,2.64-2.16,2.45-3.84,5.18-5.23,8.11-1.1,2.35-1.97,4.8-2.78,7.3-1.2,3.6-1.78,7.34-2.64,11.04-.05.14-.05.34.05.43.1.1.24,0,.34-.05,3.79-1.82,7.82-3.07,11.9-4.22,1.49-.43,2.98-.82,4.46-1.2l-.1-.05ZM858.02,610.05c.24.05.53.05.67.29-.1.14-.19.14-.29.14-.14,0-.29,0-.38-.05v-.38Z"/>
    <path class="st2" d="M850.24,632.23c.34-.24.72-.43,1.1-.58l.34-.1c.43-.14.86-.24,1.34-.29.19,0,.38,0,.58-.05.19,0,.38-.05.58-.1h.43c.38,0,.77-.05,1.15,0,.1,0,.19-.05.29-.05h.77s.1-.05.14-.1l.48-.38.24-.19.43-.34,1.2-1.15c.43-.48.82-.96,1.2-1.44l1.01-1.39.43-.72.86-1.49.77-1.44c.29-.62.58-1.25.82-1.92l.14-.34c.38-1.01.77-2.02,1.06-3.02l.1-.34c.34-1.15.67-2.3.91-3.5.19-.77.34-1.54.48-2.3.14-.77.24-1.54.34-2.3l.14-1.44.14-1.3.14-.86v-.14c0-.43,0-.86.05-1.3.05-.86.05-1.73.05-2.59v-3.36c0-.58-.05-1.15-.1-1.73v-.14c0-.62,0-1.25-.05-1.87,0-.43-.05-.86-.1-1.3v-.86c0-.38,0-.77-.05-1.15,0-.34-.05-.67-.1-1.01-.05-.34-.05-.67-.05-1.01l-.14-1.01v-.72c0-.34,0-.67-.05-1.01,0-.29-.05-.58-.1-.86-.05-.43-.05-.82-.05-1.25v-1.25s.1-.05.14,0c.14.05.24.14.29.29,0,.14,0,.29.05.38,0,.14.05.24.1.34,0,.05,0,.1-.05.14-.05.05-.05.1-.05.14v.29l.14,1.15.14,1.01.14,1.3c.05.24.05.48.05.72l.14.86c0,.24.05.48.05.72l.29,3.17c.05.34.05.67.05,1.01l.14,1.3v.14c0,.48,0,.96.05,1.44l.1,1.25c.05.58.05,1.15.05,1.73v5.47c0,.34-.05.67-.1,1.01v.72l-.14,1.44-.14,1.01-.14.72-.29,1.58-.34,1.73-.48,1.87c-.24,1.01-.53,2.02-.86,2.98l-.58,1.58-.72,1.73-.48.96-.34.62c-.19.43-.38.82-.62,1.2l-.34.58c-.38.62-.72,1.25-1.15,1.82l-.43.58-.58.72-.43.43c-.1.14-.19.29-.34.43l-1.15,1.15-.67.58-.43.43-.1.14h.14l.86.14.58.14c.1,0,.24.05.34.05l.67.1c.1,0,.24,0,.34.05l1.01.29,1.34.34.34.1.67.19.34.1.96.29.29.1.58.14.29.1.91.29,1.34.38c.58.19,1.2.38,1.82.53l1.2.29,1.3.24,1.73.38c.1.05.24.1.34.1l.67.1c.72.14,1.44.29,2.16.38l.58.14,1.15.14.58.14.67.1c.1,0,.24.05.34.05l.72.14c.14.05.29.1.43.1l.96.1c.1,0,.24.05.34.05.19.05.38.1.58.1.19.05.38.05.58.05h.58c.24.05.48.1.72.1.24.05.48.05.72.05.19,0,.38.05.58.1h4.51c.34,0,.72,0,1.1-.05.29,0,.58-.05.86-.1l.77-.14.34-.1c.19-.05.38-.14.58-.24.19-.1.38-.05.53.14.05.1.05.19-.05.24l-.58.34c-.34.1-.67.19-1.01.24-.24.05-.43.1-.67.1h-.34c-.29,0-.58.05-.86.05h-1.3c-.29,0-.58.05-.86,0-.24.05-.48,0-.72,0s-.48-.05-.72-.05-.48,0-.72-.05h-.86c-.19,0-.38,0-.58-.05-.24-.05-.48-.05-.72-.05-.1,0-.19-.05-.29-.05-.19,0-.38,0-.58-.05-.19,0-.38-.05-.58-.1l-.67-.1c-.1,0-.24-.05-.34-.05-.19,0-.38,0-.53-.05-.43-.1-.91-.1-1.34-.14-.19,0-.38-.05-.58-.1l-.58-.1-.67-.14c-.1,0-.24-.05-.34-.05s-.24-.05-.34-.05l-.67-.1c-.1,0-.19-.05-.29-.05l-.86-.1c-.1,0-.19-.05-.29-.05l-.58-.1c-.1,0-.19,0-.29-.05-.1,0-.19-.05-.29-.1-.1,0-.19-.05-.29-.05l-.58-.1-1.01-.24-.34-.1-1.39-.34-.86-.14-1.15-.29-1.58-.43-.58-.14-1.44-.43-1.01-.29c-.58-.19-1.15-.38-1.73-.53l-1.44-.43-1.2-.29-.86-.19c-.1,0-.19,0-.29-.05l-1.87-.38c-.38-.1-.77-.14-1.15-.19-.19,0-.34.05-.48.19-.14.14-.34.24-.53.34-.29.19-.58.34-.86.48-.43.29-.91.53-1.39.72l-.62.24c-.34.1-.67.24-1.01.29s-.53.1-.77.1-.43.05-.72,0c-.34,0-.67-.1-.96-.24-.19-.1-.34-.29-.43-.53l-.14-.14s-.1-.05-.14-.05v-.14s.1-.1.1-.14c.1-.24.29-.43.48-.62ZM852.73,633.33c.43-.14.86-.34,1.3-.53.05,0,.1,0,.14-.05l.86-.43-.19-.1c.38-.19.72-.43,1.06-.72h-1.3c-.34,0-.72.05-1.06.05h-.24l-1.15.24c-.43.1-.82.24-1.2.43-.24.14-.48.34-.67.58-.05.05-.1.14-.1.19-.05.19.05.48.34.53.38.1.77.1,1.15.05s.72-.14,1.06-.24Z"/>
  </g>
</svg>