<?xml version="1.0" encoding="UTF-8"?>
<svg id="Layer_1" xmlns="http://www.w3.org/2000/svg" version="1.1" viewBox="0 0 1280 1024">
  <!-- Generator: Adobe Illustrator 30.2.1, SVG Export Plug-In . SVG Version: 2.1.1 Build 1)  -->
  <defs>
    <style>
      .st0 {
        fill: #183e4b;
        stroke: #fff;
        stroke-miterlimit: 10;
      }

      .st1 {
        fill: none;
      }

      .st2 {
        fill: #e07b5a;
      }
    </style>
  </defs>
  <g>
    <g>
      <path class="st0" d="M592.78,249.92c29.24-3.88,68.17,6.46,95.67,15.82-12.76-5.69-56.28-23.97-80.3-20.44-14.65,3.42-14.93,3.49-22.31,6.04l-2.48.88c5.26-1.58,6.21-1.86,9.41-2.29"/>
      <g>
        <path class="st0" d="M503.62,317.58c50.34-28.72,230.39,36.01,289.48,93.73-58.18-73.63-244.1-144.66-274.78-116.2l-.78.84c-11.14,13.07-11.57,13.58-17.02,21.85l-4.23,6.83c2.66-3.5,3.87-5.09,7.33-7.06"/>
        <path class="st0" d="M802.55,427.09c1.87,5.89,2.73,10.58,1.57,17.14l1.84-10.09c-.12-3.43-.18-5.16-4.93-11.12.46,1.22,1.13,2.83,1.52,4.07"/>
      </g>
      <path class="st0" d="M475.83,420.9c8.16-17.18,49.02-25.77,139.21,1.63-64.85-31.38-137.13-49.15-141.38-25.56-.19,5.41-.46,12.63-.36,18.04.34,4.71.72,11,1.28,15.69-.15-4.16-.24-6.67,1.25-9.8"/>
      <path class="st0" d="M517.24,522.36c-4.7-5.29-8.39-10.62-10.97-15.83-.86.7-.68,1.69.62,3.4l6.43,8.02c2.22,2.47,5.15,5.78,7.44,8.17-1.06-1.13-2.49-2.61-3.52-3.77"/>
    </g>
    <g>
      <path class="st0" d="M775.42,352.9c-47.32,29.42-215.47-43.84-204.46-89.08,1.25-5.12,4.96-8.6,12.41-11.62l2.48-.88q14.71-4.53,22.31-6.04c-22.72,5.99,7.12,30.28,39.57,49.26.08.05.2.11.28.16,19.09,11.74,69.88,40.8,128.97,57.08-.47.33-1.07.81-1.56,1.11"/>
      <path class="st0" d="M804.11,444.23c-21.99,67.69-264.65-23.45-304.93-94.88-8.03-14.24-4.56-21.32-2.89-24.72l4.23-6.83c10.19-14.33,10.39-14.61,17.02-21.85l.78-.84c-16.75,24.02,59.1,68.67,74.48,77.37,97.55,56.47,206.25,83.48,213.16,61.66l-1.84,10.09"/>
      <path class="st0" d="M733.04,541.6c-84.32,21.6-250.53-58.05-258.45-110.9-.43-4.7-1.08-10.97-1.28-15.69.02-5.41.04-12.64.36-18.04,1.55,21.43,45.77,50.26,71.99,65.53,75.58,45.38,154.58,74.15,190.55,78.19-.95.28-2.2.68-3.16.92"/>
      <path class="st0" d="M595.16,565.48c-11.97-2.22-43.75-8.13-74.4-39.35-2.25-2.44-5.28-5.66-7.44-8.17l-6.43-8.02c6.28,7.15,17.64,13.44,40.28,25.98,22.6,13.18,39.2,23.2,49.35,29.8-.41-.07-.95-.16-1.35-.24"/>
      <path class="st0" d="M706.31,270.04c-4.23,6.9-24.21,3.49-27.55-6.8-1.19-3.67,1.31-6.28,6.22-6.5,1.66-.07,1.81,0,2.07.1,7.22,3.1,13.08,4.87,17.42,5.26-.73,1.14-1.08,2.5,2.01,7.58-.05.1-.11.24-.17.34"/>
    </g>
  </g>
  <ellipse class="st1" cx="625.9" cy="407.23" rx="186.65" ry="170.45"/>
  <g>
    <path class="st2" d="M430.22,648.54l2.76-2.7c.6-.6,1.02-.42,1.5.06.66.6,2.04,1.44,3.54,1.44,2.04,0,4.26-1.92,4.8-6.06l4.02-28.32c.06-.6.6-1.14,1.14-1.14h5.94c.6,0,.96.54.9,1.14l-4.02,28.32c-1.14,8.34-4.86,13.14-12.6,13.14-4.74,0-7.5-3-8.34-4.38-.3-.48-.06-1.08.36-1.5Z"/>
    <path class="st2" d="M464.78,613.26c.12-.78.72-1.44,1.5-1.44h5.64c.72,0,1.2.66,1.08,1.44l-2.28,16.2,14.1-16.56c.66-.78,1.2-1.08,2.46-1.08h5.94c1.02,0,1.38,1.08.6,1.98l-16.38,18.36,12.12,19.8c.42.78-.18,1.86-1.2,1.86h-5.46c-1.14,0-1.62-.24-2.16-1.2l-10.68-18.54-2.58,18.3c-.06.78-.78,1.44-1.44,1.44h-5.64c-.78,0-1.2-.66-1.14-1.44l5.52-39.12Z"/>
    <path class="st2" d="M494.48,647.94l2.34-3.42c.54-.84,1.38-.66,1.86-.24.84.72,3.78,3.12,7.44,3.12,2.7,0,5.34-2.1,5.34-5.1,0-2.64-1.8-4.38-5.16-6.6-3.96-2.58-8.64-6-8.64-12s4.14-12.48,13.56-12.48c5.58,0,9.66,2.88,10.68,3.9.72.72.78,1.56.18,2.4l-2.34,3.3c-.48.72-1.26.78-2.1.12-.96-.78-3.72-2.64-6.78-2.64s-5.1,2.34-5.1,4.68,1.62,3.6,5.22,6c3.96,2.64,9.24,5.94,9.24,12.54,0,7.02-5.46,12.9-14.34,12.9-6.18,0-10.44-3.6-11.4-4.68-.36-.36-.66-.9,0-1.8Z"/>
    <path class="st2" d="M545.48,612.96c.06-.6.6-1.14,1.14-1.14h5.88c.54,0,.96.54.84,1.14l-5.58,39.72c-.06.6-.6,1.14-1.14,1.14h-5.88c-.54,0-.96-.54-.84-1.14l5.58-39.72Z"/>
    <path class="st2" d="M559.04,630.96c.06-.66.6-1.14,1.14-1.14h2.34c.36,0,.78.3.84.72l.54,2.22c1.14-1.02,4.08-3.54,8.1-3.54,6.6,0,9.18,5.7,8.28,11.94l-1.62,11.52c-.06.6-.6,1.14-1.14,1.14h-5.22c-.6,0-.9-.54-.84-1.14l1.74-11.88c.42-3.12-.66-5.1-3.06-5.1-3.12,0-5.16,3.36-5.16,3.36l-1.92,13.62c-.12.84-.42,1.14-1.26,1.14h-4.98c-.54,0-.96-.54-.84-1.14l3.06-21.72Z"/>
    <path class="st2" d="M588.68,636.12h-2.16c-.54,0-.9-.54-.84-1.14l.54-4.02c.12-.66.6-1.14,1.14-1.14h2.22l.9-6.66c.12-.6.66-1.14,1.2-1.14l5.22-.06c.54,0,.9.54.78,1.14l-.9,6.72h4.32c.6,0,.96.48.84,1.14l-.54,4.02c-.12.6-.6,1.14-1.2,1.14h-4.32l-1.38,9.48c-.24,1.68.6,1.92,1.32,1.92.84,0,1.8-.48,2.4-.72.6-.24,1.02.06,1.14.66l.6,3.96c.12.6-.24,1.08-.9,1.44-.48.3-3.96,1.56-6.66,1.56-4.14,0-5.88-2.88-5.22-7.74l1.5-10.56Z"/>
    <path class="st2" d="M618.56,629.22c4.74,0,7.68,2.7,7.68,6.36,0,6.12-8.94,8.16-15.06,8.22-.18,2.46.96,4.38,3.96,4.38,1.44,0,3.24-.72,4.26-1.44.54-.36,1.08-.48,1.38,0l1.98,2.82c.3.42.3,1.08-.18,1.56-2.1,1.92-5.1,3.3-8.58,3.3-5.76,0-9.54-4.92-9.54-10.68,0-7.5,5.7-14.52,14.1-14.52ZM619.46,636.3c0-.84-.66-1.5-2.04-1.5-2.4,0-4.68,2.28-5.34,4.32,2.88-.06,7.38-.9,7.38-2.82Z"/>
    <path class="st2" d="M631.94,630.96c.06-.66.6-1.14,1.14-1.14h2.34c.36,0,.78.36.9.78l.54,2.34c.9-1.26,3.42-3.72,6.48-3.72,1.74,0,3.18.54,3.78.96.42.3.48.78.12,1.44l-2.22,3.9c-.3.54-.72.72-1.26.48s-1.5-.36-2.04-.36c-2.22,0-3.66,2.52-3.66,2.52l-2.04,14.52c-.12.84-.54,1.14-1.38,1.14h-4.92c-.54,0-.96-.54-.84-1.14l3.06-21.72Z"/>
    <path class="st2" d="M651.38,630.96c.06-.66.6-1.14,1.14-1.14h2.34c.36,0,.78.3.84.72l.54,2.22c1.14-1.02,4.08-3.54,8.1-3.54,6.6,0,9.18,5.7,8.28,11.94l-1.62,11.52c-.06.6-.6,1.14-1.14,1.14h-5.22c-.6,0-.9-.54-.84-1.14l1.74-11.88c.42-3.12-.66-5.1-3.06-5.1-3.12,0-5.16,3.36-5.16,3.36l-1.92,13.62c-.12.84-.42,1.14-1.26,1.14h-4.98c-.54,0-.96-.54-.84-1.14l3.06-21.72Z"/>
    <path class="st2" d="M698.72,652.68c-.06.6-.66,1.14-1.2,1.14h-2.34c-.36,0-.78-.18-.96-1.02l-.36-1.8c-.9.84-3.48,3.42-7.74,3.42-5.04,0-8.82-4.92-8.82-11.04,0-7.74,5.34-14.16,12.36-14.16,3.42,0,5.88,2.16,6.72,3.3l1.08-1.92c.24-.42.54-.78,1.08-.78h2.34c.54,0,.96.48.84,1.14l-3,21.72ZM693.56,639.06c-.18-1.02-1.38-3.36-3.9-3.36-2.76,0-5.64,2.82-5.64,7.56,0,2.58,1.5,4.68,3.96,4.68s4.44-2.7,4.86-3.9l.72-4.98Z"/>
    <path class="st2" d="M709.64,636.12h-2.16c-.54,0-.9-.54-.84-1.14l.54-4.02c.12-.66.6-1.14,1.14-1.14h2.22l.9-6.66c.12-.6.66-1.14,1.2-1.14l5.22-.06c.54,0,.9.54.78,1.14l-.9,6.72h4.32c.6,0,.96.48.84,1.14l-.54,4.02c-.12.6-.6,1.14-1.2,1.14h-4.32l-1.38,9.48c-.24,1.68.6,1.92,1.32,1.92.84,0,1.8-.48,2.4-.72.6-.24,1.02.06,1.14.66l.6,3.96c.12.6-.24,1.08-.9,1.44-.48.3-3.96,1.56-6.66,1.56-4.14,0-5.88-2.88-5.22-7.74l1.5-10.56Z"/>
    <path class="st2" d="M728.78,630.96c.12-.66.66-1.14,1.2-1.14h5.28c.54,0,1.02.48.9,1.14l-3.06,21.72c-.06.6-.66,1.14-1.2,1.14h-5.28c-.54,0-.96-.54-.9-1.14l3.06-21.72ZM730.28,617.7c0-2.58,2.22-4.68,4.62-4.68,2.1,0,3.6,1.62,3.6,3.66,0,2.52-2.28,4.62-4.74,4.62-2.04,0-3.48-1.62-3.48-3.6Z"/>
    <path class="st2" d="M752.89,629.22c5.52,0,9.54,5.04,9.54,10.92,0,7.74-6,14.28-13.08,14.28-5.58,0-9.54-5.22-9.54-10.98,0-7.68,5.88-14.22,13.08-14.22ZM755.77,640.8c0-2.82-1.5-5.1-3.78-5.1-2.94,0-5.58,3.18-5.58,7.02,0,2.88,1.5,5.22,3.84,5.22,2.88,0,5.52-3.24,5.52-7.14Z"/>
    <path class="st2" d="M769.22,630.96c.06-.66.6-1.14,1.14-1.14h2.34c.36,0,.78.3.84.72l.54,2.22c1.14-1.02,4.08-3.54,8.1-3.54,6.6,0,9.18,5.7,8.28,11.94l-1.62,11.52c-.06.6-.6,1.14-1.14,1.14h-5.22c-.6,0-.9-.54-.84-1.14l1.74-11.88c.42-3.12-.66-5.1-3.06-5.1-3.12,0-5.16,3.36-5.16,3.36l-1.92,13.62c-.12.84-.42,1.14-1.26,1.14h-4.98c-.54,0-.96-.54-.84-1.14l3.06-21.72Z"/>
    <path class="st2" d="M816.55,652.68c-.06.6-.66,1.14-1.2,1.14h-2.34c-.36,0-.78-.18-.96-1.02l-.36-1.8c-.9.84-3.48,3.42-7.74,3.42-5.04,0-8.82-4.92-8.82-11.04,0-7.74,5.34-14.16,12.36-14.16,3.42,0,5.88,2.16,6.72,3.3l1.08-1.92c.24-.42.54-.78,1.08-.78h2.34c.54,0,.96.48.84,1.14l-3,21.72ZM811.39,639.06c-.18-1.02-1.38-3.36-3.9-3.36-2.76,0-5.64,2.82-5.64,7.56,0,2.58,1.5,4.68,3.96,4.68s4.44-2.7,4.86-3.9l.72-4.98Z"/>
    <path class="st2" d="M829.33,612.96c.06-.6.66-1.14,1.2-1.14h5.28c.54,0,.96.54.9,1.14l-5.58,39.72c-.06.6-.66,1.14-1.2,1.14h-5.34c-.54,0-.9-.54-.84-1.14l5.58-39.72Z"/>
  </g>
</svg>